# xmcd
#
# Track frame offsets:
#	150
#	15825
#	30225
#	48600
#	59025
#	75375
#	94500
#	117525
#	135375
#	149325
#	165825
#	180000
#
# Disc length: 2588 seconds
# Revision: 0
# Processed by: cddbd v1.5.2PL0 Copyright (c) Steve Scherf et al.
# Submitted via: dBpowerAMP V12.0
#
DISCID=850a1a0c
DTITLE=Brian Lee and The Orbiters - In Orbit
DYEAR=2013
DGENRE=Blues
TTITLE0=Ninety Nine
TTITLE1=I've Been Thinking
TTITLE2=You Give Me Nothing But The Blues
TTITLE3=Back On The Ground
TTITLE4=Lucky Lou
TTITLE5=I Wish You Would
TTITLE6=See Me In The Evening
TTITLE7=Texas Hop
TTITLE8=Bucket Of Chicken Wings
TTITLE9=Shake Your Money Maker
TTITLE10=Knock It Off
TTITLE11=Playing In The Dark
EXTD=
EXTT0=
EXTT1=
EXTT2=
EXTT3=
EXTT4=
EXTT5=
EXTT6=
EXTT7=
EXTT8=
EXTT9=
EXTT10=
EXTT11=
PLAYORDER=
